<?xml version="1.0" encoding="utf-8"?>
<!-- Generator: Adobe Illustrator 28.1.0, SVG Export Plug-In . SVG Version: 6.00 Build 0)  -->
<svg version="1.1" id="Layer_1" xmlns="http://www.w3.org/2000/svg" xmlns:xlink="http://www.w3.org/1999/xlink" x="0px" y="0px"
	 viewBox="0 0 578.63 581.14" style="enable-background:new 0 0 578.63 581.14;" xml:space="preserve">
<style type="text/css">
	.st0{fill:#FF6632;}
	.st1{fill:#FFFFFF;}
</style>
<g>
	<path class="st0" d="M-1,0.26h468.37c60.89,0,110.26,49.36,110.26,110.26v468.37L-1,0.26z"/>
	<g>
		<path class="st1" d="M260.27,48.82L237.8,97.98l47.64-25.32l14.7,13.93l-74.1,34.29l-10.96-10.39l30.25-75.84L260.27,48.82z"/>
		<path class="st1" d="M289.36,164.34c9.22,8.74,18.7,9.21,29.82,7.45c6.05-0.89,10.24,1.67,10.85,6.02s-2.69,8.33-8.74,9.22
			c-16.2,2.62-30.85-0.38-42.56-11.48c-12.71-12.04-17.31-29.64-13.46-49.17c0.83-5.36,4.63-8.38,8.77-7.76
			c4.14,0.62,7.17,4.91,6.11,10.52C277.84,142.55,279.89,155.37,289.36,164.34z M335.59,149.98c-4.25,4.48-10.57,4.17-14.56,0.39
			c-3.99-3.78-4.64-10.07-0.39-14.56c4.25-4.48,10.57-4.17,14.56-0.39C339.18,139.2,339.6,145.75,335.59,149.98z"/>
		<path class="st1" d="M385.59,167.58l-7.08,7.47c8.7-1.69,17.97,0,26.44,8.03c10.71,10.15,14.67,30.93-3.51,50.11
			c-19.12,20.18-40.29,18.57-52.75,6.76c-6.48-6.14-10.1-14.3-8.68-24.77l-25.03,26.41l-13.45-12.75l70.36-74.25L385.59,167.58z
			 M359.62,194.98c-10.62,11.21-9.81,23.33-2.59,30.18c6.98,6.61,19.15,7.74,30.24-3.97c10.86-11.46,9.08-23.55,2.1-30.16
			C382.4,184.42,370.72,183.27,359.62,194.98z"/>
		<path class="st1" d="M450.37,228.96l-7.08,7.47c8.7-1.69,17.97,0,26.44,8.03c10.71,10.15,14.67,30.93-3.51,50.11
			c-19.12,20.18-40.29,18.57-52.75,6.76c-6.48-6.14-10.1-14.3-8.68-24.77l-25.03,26.41l-13.45-12.75l70.36-74.25L450.37,228.96z
			 M424.4,256.37c-10.62,11.21-9.81,23.33-2.59,30.18c6.98,6.61,19.15,7.74,30.24-3.97c10.86-11.46,9.08-23.55,2.1-30.16
			C446.93,245.57,435.5,244.66,424.4,256.37z"/>
		<path class="st1" d="M521.55,293.58c11.21,10.62,14.23,23.41,5.44,39.67l-14.1-9.58c5.89-6.71,4.03-12.73-1.95-18.4
			c-4.48-4.25-9.86-5.56-12.93-2.32c-2.36,2.49-2.98,6.64,1.31,12.59l7.57,10.48c7.32,10.24,6.63,20.95-0.92,28.92
			c-11.33,11.96-27.71,7.79-37.93-1.89c-10.71-10.15-17.48-26.97-6.47-42.07l14.1,9.58c-5.86,7.68-3.99,14.19,2.99,20.8
			c5.23,4.96,10.61,6.27,13.68,3.03c2.83-2.99,3.21-6.88-1.57-13.31l-7.05-9.52c-7.32-10.24-6.9-21.67,0.66-29.64
			C496.41,279.68,512.58,285.08,521.55,293.58z"/>
	</g>
</g>
</svg>
